<svg version="1.1" viewBox="0.0 0.0 813.1338582677165 278.20997375328085" fill="none" stroke="none" stroke-linecap="square" stroke-miterlimit="10" xmlns:xlink="http://www.w3.org/1999/xlink" xmlns="http://www.w3.org/2000/svg"><clipPath id="p.0"><path d="m0 0l813.13385 0l0 278.20996l-813.13385 0l0 -278.20996z" clip-rule="nonzero"/></clipPath><g clip-path="url(#p.0)"><path fill="#000000" fill-opacity="0.0" d="m0 0l813.13385 0l0 278.20996l-813.13385 0z" fill-rule="evenodd"/><path fill="#ff0000" d="m29.343046 20.181103l0 3.1763916l4.2065754 0c2.7471466 0 5.351219 0.68678665 7.8122063 2.0603619c1.8314323 1.0301819 3.03331 2.2606754 3.6056328 3.6914825c0.74402237 1.8886662 1.1160316 5.7804623 1.1160316 11.675386l0 79.49565c0 4.8075104 -0.6772499 8.155609 -2.031746 10.044266c-1.3354225 1.8886719 -2.7757683 2.8329926 -4.3210373 2.8329926c-2.0603638 0 -3.7487183 -1.5452576 -5.0650597 -4.635803c-2.2320595 -5.208145 -4.082571 -8.413155 -5.5515327 -9.615028c-1.4498844 -1.2018814 -3.0905437 -1.8028183 -4.921976 -1.8028183c-2.518221 0 -4.7216644 0.8871002 -6.6103306 2.6613007c-1.4308071 1.430809 -2.1462107 3.5484009 -2.1462107 6.352783c0 3.4339447 1.5452719 6.486328 4.6358156 9.157166c3.0905437 2.651764 7.325733 3.9776459 12.70557 3.9776459c6.6389465 0 12.304943 -2.01268 16.99799 -6.0380096c4.6930466 -4.0444183 7.9934425 -8.785156 9.901188 -14.222221c1.9268188 -5.437065 2.8902283 -12.5338745 2.8902283 -21.290413l0 -56.917515c0 -6.982338 0.68678665 -11.389225 2.0603638 -13.220657c2.1748276 -2.8043823 5.6373825 -4.2065735 10.387657 -4.2065735l4.2065735 0l0 -3.1763916z" fill-rule="evenodd"/><path fill="#ff0000" d="m79.25722 86.33071l0 2.6669083c2.798088 0 5.0112686 0.44849396 6.6395416 1.3454742c1.6440735 0.88095856 2.9403687 2.2344437 3.8888779 4.06044c0.5690994 1.1052017 1.920723 4.6851196 4.054863 10.739731l28.668602 81.160706l2.5609665 0l21.839355 -62.492302l21.981628 62.492302l2.84552 0l26.890152 -78.782104c2.0392914 -6.3429337 3.5331879 -10.355316 4.4816895 -12.037155c1.42276 -2.498726 2.9166565 -4.20459 4.4816895 -5.117592c1.565033 -0.9129944 3.6043243 -1.3694992 6.117859 -1.3694992l0 -2.6669083l-28.810867 0l0 2.6669083c2.8929443 0 5.240494 0.33637238 7.0426636 1.0091095c1.0433502 0.38441467 1.9049072 1.0571518 2.584671 2.0182037c0.6955719 0.96105194 1.0433655 1.9941788 1.0433655 3.0993881c0 2.3065186 -1.0433655 6.4390335 -3.1300812 12.397545l-18.353592 53.84285l-18.495865 -53.122063c-2.13414 -6.102669 -3.2012177 -10.379341 -3.2012177 -12.830017c0 -1.9701538 0.6165314 -3.5318604 1.8495941 -4.6851196c1.2330627 -1.1532593 3.1774902 -1.7298965 5.833313 -1.7298965l2.5609589 0l0 -2.6669083l-37.560837 0l0 2.6669083c1.9444351 0 3.3671875 0.14415741 4.26828 0.43247223c1.1856232 0.3844223 2.3712616 1.0091095 3.5569 1.874054c0.9010773 0.62467957 1.6598816 1.3935242 2.276413 2.3065186c1.2330475 1.8259964 2.3475494 3.9403076 3.3434753 6.3429337l2.276413 6.559166l2.84552 8.21698l-16.006035 46.63497l-18.993843 -54.85195c-2.086708 -6.054619 -3.130066 -9.922844 -3.130066 -11.604683c0 -1.6337814 0.6639557 -3.0273056 1.9918594 -4.180565c1.3279114 -1.1532593 3.2486343 -1.7298965 5.7621765 -1.7298965l1.7073135 0l0 -2.6669083z" fill-rule="evenodd"/><path fill="#ff0000" d="m226.39325 77.01857l-0.12553406 2.1842194l0.29815674 0c0.036605835 -0.42127228 0.15168762 -0.75554657 0.34521484 -1.0028152c0.19354248 -0.24726868 0.4263153 -0.41440582 0.6983032 -0.50141144c0.20922852 -0.06410217 0.56230164 -0.09616089 1.0592194 -0.09616089l1.2789154 0l0 7.1158905c0 0.52201843 -0.057540894 0.8562851 -0.17260742 1.0028229c-0.18830872 0.23810577 -0.50738525 0.35716248 -0.9572296 0.35716248l-0.37660217 0l0 0.25414276l4.51149 0l0 -0.25414276l-0.3687744 0c-0.41322327 0 -0.719223 -0.09616089 -0.917984 -0.28848267c-0.14123535 -0.14195251 -0.21183777 -0.499115 -0.21183777 -1.0715027l0 -7.1158905l1.4985962 0c0.43937683 0 0.7933197 0.06334686 1.0618286 0.19003296c0.27026367 0.12516022 0.48646545 0.32054138 0.6486206 0.5861206c0.09938049 0.16484833 0.17784119 0.43959808 0.23538208 0.824234l0.29814148 0l-0.11769104 -2.1842194z" fill-rule="evenodd"/><path fill="#ff0000" d="m235.86346 77.01857l0 0.25414276c0.43415833 0 0.74887085 0.045028687 0.94415283 0.13507843c0.19702148 0.088531494 0.33215332 0.19919586 0.40538025 0.33198547c0.10461426 0.1831665 0.15692139 0.48080444 0.15692139 0.89292145l0 6.085594c0 0.52201843 -0.057540894 0.8562851 -0.17262268 1.0028229c-0.18829346 0.23810577 -0.50737 0.35716248 -0.95721436 0.35716248l-0.37661743 0l0 0.25414276l3.703354 0l0 -0.25414276l-0.37661743 0c-0.41845703 0 -0.7244568 -0.09616089 -0.917984 -0.28848267c-0.14123535 -0.14195251 -0.21185303 -0.499115 -0.21185303 -1.0715027l0 -6.222969l4.1113586 7.837097l0.25891113 0l4.1035004 -7.837097l0 6.222969c0 0.52201843 -0.057540894 0.8562851 -0.17260742 1.0028229c-0.18307495 0.23810577 -0.5021515 0.35716248 -0.9572296 0.35716248l-0.37660217 0l0 0.25414276l4.519333 0l0 -0.25414276l-0.36875916 0c-0.41845703 0 -0.7244568 -0.09616089 -0.91799927 -0.28848267c-0.14645386 -0.14195251 -0.21968079 -0.499115 -0.21968079 -1.0715027l0 -6.085594c0 -0.52201843 0.057525635 -0.8562851 0.17260742 -1.0028152c0.18830872 -0.2381134 0.5099945 -0.3571701 0.96507263 -0.3571701l0.36875916 0l0 -0.25414276l-3.0128937 0l-3.7975006 7.2876053l-3.8602753 -7.2876053z" fill-rule="evenodd"/><path fill="#ffffff" d="m281.79 186.07304l0 1.3339996c1.5411072 0 2.7600403 0.22433472 3.6568298 0.67300415c0.90548706 0.44065857 1.6194458 1.1176758 2.1418457 2.0310364c0.31344604 0.5528259 1.0578613 2.3435059 2.2332764 5.3720245l15.789581 40.596664l1.410492 0l12.02832 -31.258713l12.106659 31.258713l1.5671997 0l14.810089 -39.40689c1.123169 -3.1727295 1.9459534 -5.1797333 2.4683533 -6.020996c0.78359985 -1.2498627 1.6063843 -2.1031342 2.4683533 -2.5598145c0.861969 -0.4566803 1.9851379 -0.6850281 3.3695068 -0.6850281l0 -1.3339996l-15.867981 0l0 1.3339996c1.5933228 0 2.8862915 0.16825867 3.8788452 0.50476074c0.574646 0.192276 1.0491638 0.5287781 1.4235535 1.0095062c0.38308716 0.4807129 0.574646 0.9974823 0.574646 1.5503082c0 1.1537323 -0.574646 3.22081 -1.723938 6.2012634l-10.10849 26.932251l-10.186829 -26.571701c-1.175415 -3.0525665 -1.7631226 -5.191757 -1.7631226 -6.4175873c0 -0.98547363 0.3395691 -1.7666473 1.0187073 -2.3435059c0.67910767 -0.5768585 1.7500305 -0.8652954 3.2127686 -0.8652954l1.410492 0l0 -1.3339996l-20.687134 0l0 1.3339996c1.0709229 0 1.8545227 0.07211304 2.3507996 0.21632385c0.65301514 0.19229126 1.3060303 0.50476074 1.9590149 0.9373932c0.49627686 0.31246948 0.9142151 0.697052 1.2537842 1.1537323c0.67910767 0.9133606 1.2929382 1.9709473 1.8414612 3.1727448l1.2537537 3.280899l1.5671997 4.110138l-8.815521 23.326859l-10.46109 -27.436996c-1.149292 -3.028534 -1.723938 -4.9634247 -1.723938 -5.8046722c0 -0.8172302 0.36569214 -1.514267 1.0970459 -2.0911255c0.73135376 -0.5768585 1.7892151 -0.8652954 3.173584 -0.8652954l0.94033813 0l0 -1.3339996z" fill-rule="evenodd"/><path fill="#ffffff" d="m376.68436 186.07304l0 1.3339996l1.998169 0c2.011261 0 3.5262146 0.52879333 4.5448914 1.5863647c0.7313843 0.7691498 1.0970459 2.680008 1.0970459 5.7325745l0 31.547134c0 2.7881622 -0.27426147 4.566818 -0.8227844 5.335968c-0.96643066 1.3460083 -2.572815 2.0190125 -4.819153 2.0190125l-1.998169 0l0 1.3339996l41.13913 0l4.544922 -13.267822l-1.2929688 -0.25238037c-1.3582458 3.028534 -2.7164612 5.2478333 -4.074707 6.6579437c-1.3582458 1.4020996 -2.8601685 2.3795624 -4.5057373 2.9323883c-1.6455688 0.5528259 -4.505707 0.8292389 -8.580444 0.8292389l-3.8788452 0c-3.4217224 0 -5.4591064 -0.12017822 -6.112091 -0.36053467c-0.65301514 -0.2403717 -1.1362305 -0.61291504 -1.4496765 -1.1176758c-0.4179077 -0.7451172 -0.6268616 -2.115158 -0.6268616 -4.110138l0 -30.717896c0 -2.9083557 0.20895386 -4.747101 0.6268616 -5.5162506c0.41793823 -0.7691498 1.19281 -1.4060974 2.324707 -1.9108429c1.0887146 -0.48181152 2.9430237 -0.7227173 5.5628357 -0.7227173c0.12475586 0 0.25125122 5.340576E-4 0.37948608 0.0016326904l0 -1.3339996z" fill-rule="evenodd"/><path fill="#ffffff" d="m446.93436 215.27669l0 12.582794c-3.2388916 2.403595 -5.850891 3.6053925 -7.836029 3.6053925c-1.462738 0 -2.7556763 -0.56884766 -3.8788452 -1.7065582c-1.123169 -1.1457062 -1.6847534 -2.5838623 -1.6847534 -4.314438c0 -1.3700562 0.44406128 -2.6319427 1.3321228 -3.7856598c0.88809204 -1.153717 2.3638916 -2.259369 4.427368 -3.3169556c1.149292 -0.6008911 3.695984 -1.6224213 7.6401367 -3.0645752zm-5.4852295 -14.313385c-4.153076 0 -7.378937 0.8652954 -9.67749 2.595871c-2.298584 1.7305908 -3.4478455 3.629425 -3.4478455 5.696518c0 1.0816193 0.30471802 1.9348907 0.9141846 2.5598145c0.6181946 0.62493896 1.410492 0.93740845 2.3769531 0.93740845c0.9925537 0 1.7935791 -0.30044556 2.4030457 -0.9013519c0.61816406 -0.6008911 0.9272461 -1.4541626 0.9272461 -2.5598145l-0.07836914 -2.0911255c0 -1.0575867 0.49630737 -1.9949799 1.4888611 -2.81221c0.96643066 -0.81721497 2.272461 -1.2258301 3.9180298 -1.2258301c2.1679382 0 3.817871 0.61291504 4.9497375 1.8387451c1.1405945 1.2258301 1.7108765 3.4852142 1.7108765 6.778137l0 1.2979279c-6.164337 2.067093 -10.57428 3.8217163 -13.229828 5.2638702c-2.6468506 1.4421539 -4.5057373 2.9804535 -5.57666 4.6148987c-0.78359985 1.1777496 -1.1753845 2.5718384 -1.1753845 4.182251c0 2.5478058 0.8010254 4.6028748 2.4030457 6.165207c1.6107483 1.5623322 3.6567993 2.3435059 6.138214 2.3435059c1.5933228 0 3.0952454 -0.30046082 4.5057373 -0.9013519c0.9403076 -0.4086151 3.2519226 -1.9228668 6.9348755 -4.5427856c0.026123047 1.9709473 0.4179077 3.3650208 1.175415 4.182251c0.7574768 0.81721497 1.7761536 1.2258301 3.0560303 1.2258301c2.6642456 0 5.4591064 -1.8026886 8.384552 -5.408081l0 -2.0190125c-1.5671997 1.4421539 -2.625061 2.319458 -3.173584 2.6319275c-0.31344604 0.16824341 -0.6791382 0.25238037 -1.0970459 0.25238037c-0.3918152 0 -0.74005127 -0.12017822 -1.0447998 -0.36054993c-0.2960205 -0.24035645 -0.5093384 -0.7130585 -0.6399536 -1.4181061c-0.13058472 -0.71307373 -0.19589233 -2.6439514 -0.19589233 -5.7926636l0 -11.212753c0 -3.1967773 -0.2350769 -5.3119354 -0.7052307 -6.3454742c-0.7313843 -1.58638 -1.8676147 -2.752121 -3.4086914 -3.497223c-2.0373535 -0.98547363 -4.6493835 -1.4782104 -7.836029 -1.4782104zm18.767303 0.9734497l0 1.3339996c1.5671997 0.31245422 2.7164917 0.77716064 3.4478455 1.3940735c0.73135376 0.60891724 1.4757996 1.7906799 2.2332764 3.5453033l11.518951 27.761475l1.4496765 0l10.46109 -21.091507l8.9722595 21.091507l1.6063843 0l11.989136 -28.446503c1.0708923 -2.5237732 2.7425842 -3.9418945 5.015045 -4.2543488l0 -1.3339996l-11.323059 0l0 1.3339996c1.4888611 0.048065186 2.4857788 0.2523651 2.9907532 0.61291504c0.5137024 0.36053467 0.77053833 0.7691498 0.77053833 1.2258301c0 0.7691498 -0.26119995 1.8026886 -0.78359985 3.1006317l-7.5617676 18.279312l-8.149475 -18.96434c-0.20895386 -0.5047455 -0.31344604 -0.9974823 -0.31344604 -1.4782104c0 -0.84124756 0.26119995 -1.4541626 0.78359985 -1.8387451c0.7836304 -0.5528259 2.1157532 -0.8652954 3.996399 -0.9373932l0 -1.3339996l-17.08255 0l0 1.3339996c1.5671997 0.07209778 2.6381226 0.27641296 3.2127686 0.61291504c1.0186768 0.5528259 1.8414612 1.5503082 2.4683533 2.9924622l2.0373535 4.867279l-7.7184753 15.467102l-7.6793213 -19.000381c-0.44403076 -1.0575867 -0.66604614 -1.9589233 -0.66604614 -2.7040405c0 -0.67300415 0.21328735 -1.1897736 0.6399231 -1.5503235c0.43533325 -0.36053467 1.3451843 -0.58888245 2.7295532 -0.6850128l0 -1.3339996z" fill-rule="evenodd"/><path fill="#ffffff" d="m568.66705 184.95538c-5.302368 0 -9.899475 1.0455627 -13.791382 3.1366882c-4.649353 2.5237732 -8.306213 6.1291504 -10.970459 10.816162c-2.246338 3.9418793 -3.3695068 8.064041 -3.3695068 12.36647c0 5.9368744 1.99823 11.176697 5.994568 15.719482c5.3285522 6.0570526 13.125366 9.085587 23.390564 9.085587c3.5784912 0 6.8303833 -0.348526 9.755859 -1.0455627c2.925476 -0.697052 5.8900757 -1.7906799 8.893921 -3.2809143l0 -14.962357c0 -2.6199036 0.26116943 -4.374527 0.78356934 -5.263855c0.7575073 -1.2498627 2.1549072 -1.8748016 4.1922607 -1.8748016l0.9795532 0l0 -1.3700562l-20.56958 0l0 1.3700562c2.1418457 0 3.6350098 0.20030212 4.479553 0.6008911c0.8532715 0.39259338 1.4801636 0.9694519 1.8806763 1.7305908c0.40924072 0.75312805 0.61383057 2.3555145 0.61383057 4.8071747l0 14.133118c-1.697815 0.889328 -3.4609375 1.5623474 -5.2893066 2.0190277c-1.8284302 0.4566803 -3.722168 0.6850128 -5.6811523 0.6850128c-3.3433838 0 -6.604004 -0.8933258 -9.781982 -2.6799927c-3.1692505 -1.794693 -5.7333374 -4.6148987 -7.692383 -8.460648c-1.9589844 -3.845749 -2.9384766 -8.100098 -2.9384766 -12.763062c0 -5.744583 1.475769 -10.695984 4.427368 -14.854202c3.526184 -4.927368 8.671875 -7.391037 15.436951 -7.391037c4.9628296 0 9.024475 1.4060974 12.185059 4.218292c2.1940308 1.9469147 3.9832764 4.8432465 5.367676 8.68898l1.3712769 0l-1.3712769 -15.431046l-1.449707 0c-0.07836914 1.2258301 -0.2960205 2.051056 -0.6529541 2.4756927c-0.3482666 0.41662598 -0.77056885 0.62493896 -1.2668457 0.62493896c-0.49627686 0 -1.475769 -0.25238037 -2.9385376 -0.75712585c-2.899292 -0.98547363 -5.1412964 -1.6224365 -6.725891 -1.9108582c-1.5759277 -0.2884369 -3.3303223 -0.4326477 -5.2632446 -0.4326477z" fill-rule="evenodd"/><path fill="#ffffff" d="m607.0245 200.9633l-10.852905 4.038025l0.39178467 1.2979431c1.0186768 -0.36053467 1.9328613 -0.540802 2.7426147 -0.540802c0.6791382 0 1.2450562 0.16824341 1.697815 0.5047455c0.46142578 0.33650208 0.77490234 0.8733063 0.9403076 1.6104126c0.1741333 0.7290802 0.26116943 3.01651 0.26116943 6.8622437l0 12.799133c0 1.9228668 -0.06524658 3.0886078 -0.19586182 3.497223c-0.26123047 0.8412628 -0.71832275 1.4541779 -1.3713379 1.8387451c-0.8880615 0.52879333 -2.2462769 0.7931824 -4.074707 0.7931824l0 1.2979431l18.375488 0l0 -1.2979431c-1.6194458 0 -2.8601685 -0.21632385 -3.722107 -0.64897156c-0.8619995 -0.4326477 -1.4627075 -0.9734497 -1.8023071 -1.6224213c-0.49627686 -0.9373932 -0.74438477 -2.319458 -0.74438477 -4.1461945l0 -15.827652c1.2537231 -2.259369 2.4683228 -3.8817902 3.6437378 -4.867264c0.54852295 -0.48072815 1.0578613 -0.7210846 1.5280151 -0.7210846c0.54852295 0 1.3887329 0.41662598 2.5205688 1.2498779c1.140625 0.82522583 2.1679688 1.2378387 3.0822144 1.2378387c0.9403076 0 1.75 -0.32447815 2.4291382 -0.9734497c0.6791382 -0.64897156 1.0186768 -1.4421539 1.0186768 -2.3795624c0 -1.0575714 -0.4701538 -1.9869537 -1.4104614 -2.7881622c-0.9403076 -0.8092041 -2.1287842 -1.2138062 -3.5654297 -1.2138062c-3.1605225 0 -6.242676 2.4756927 -9.24646 7.4270935l0 -7.4270935z" fill-rule="evenodd"/><path fill="#ffffff" d="m641.2287 203.3068c2.87323 0 5.2371216 1.1537323 7.091614 3.4611816c2.7426147 3.3650208 4.1139526 7.9799194 4.1139526 13.844681c0 4.6870117 -0.82281494 7.9919434 -2.4683838 9.91481c-1.6455688 1.9228821 -3.7351685 2.8843079 -6.268799 2.8843079c-3.39563 0 -6.133911 -1.7425995 -8.214783 -5.2277985c-2.0722046 -3.4852142 -3.1082764 -7.6314087 -3.1082764 -12.438583c0 -2.9804535 0.43096924 -5.420105 1.2929077 -7.318939c0.8619995 -1.8988342 1.989502 -3.224823 3.3825684 -3.977951c1.4017944 -0.7611389 2.7948608 -1.1417084 4.179199 -1.1417084zm1.2145996 -2.3434906c-2.9776611 0 -5.798645 0.71707153 -8.462891 2.1512146c-2.6642456 1.4261322 -4.8148193 3.637436 -6.45166 6.633911c-1.6281738 2.9884644 -2.4422607 5.9969635 -2.4422607 9.025482c0 4.1582184 1.3452148 7.9078217 4.0355835 11.24881c3.1866455 3.9659271 7.4833984 5.948883 12.890259 5.948883c3.3172607 0 6.3253784 -0.7691498 9.024475 -2.3074493c2.7077637 -1.5382996 4.8322144 -3.821701 6.373291 -6.850235c1.5411377 -3.0285187 2.3116455 -6.020996 2.3116455 -8.977417c0 -4.2062836 -1.3973999 -7.931839 -4.1922607 -11.176697c-3.2911377 -3.7976685 -7.6531982 -5.6965027 -13.086182 -5.6965027z" fill-rule="evenodd"/><path fill="#ffffff" d="m723.46783 206.19112c2.298584 0 4.2836914 0.9373932 5.9553833 2.8121948c2.4030762 2.7160645 3.6046143 6.5978546 3.6046143 11.645401c0 4.44664 -1.0578613 7.8957977 -3.173584 10.347458c-1.6194458 1.8748016 -3.7352295 2.81221 -6.347229 2.81221c-2.1679688 0 -3.9658813 -0.52879333 -5.393799 -1.58638c-1.4191895 -1.0575714 -2.3116455 -2.2834015 -2.6773071 -3.6774902c-0.23504639 -0.8412628 -0.3526001 -2.5958862 -0.3526001 -5.2638702l0 -12.330414c2.1679688 -2.1632385 3.722107 -3.4611816 4.6624146 -3.8938293c1.2276611 -0.5768585 2.4683838 -0.86528015 3.722107 -0.86528015zm-60.885925 -4.254364l0 1.3339996c0.12823486 -0.0016479492 0.25372314 -0.0024719238 0.37652588 -0.0024719238c1.6782837 0 2.8500977 0.15306091 3.5153809 0.45915222c0.72265625 0.32048035 1.2667847 0.78115845 1.6325073 1.3820648c0.36566162 0.6008911 0.54852295 1.6825104 0.54852295 3.2448425l0 14.746033c0 3.0765991 0.28729248 5.4561462 0.8619385 7.138672c0.574646 1.6825104 1.5976562 3.0605621 3.0690918 4.1341705c1.4801636 1.0655975 3.22583 1.5983887 5.2371216 1.5983887c1.8022461 0 3.5131226 -0.3965912 5.1325684 -1.1897736c1.6194458 -0.7931824 3.9702759 -2.7280731 7.052429 -5.8046722l0 6.994446l1.7631226 0l10.735352 -4.0740814l-0.54852295 -1.2618866c-1.0186768 0.4086151 -1.9328613 0.61291504 -2.7426147 0.61291504c-0.574646 0 -1.0796509 -0.16825867 -1.5149536 -0.50476074c-0.42663574 -0.33650208 -0.74005127 -0.9293823 -0.9403076 -1.778656c-0.19158936 -0.85728455 -0.28735352 -3.1967773 -0.28735352 -7.0184784l0 -20.009903l-12.224182 0l0 1.3339996c2.350769 0.048065186 3.8962402 0.40460205 4.6362915 1.0695953c0.7487793 0.6569824 1.123169 1.9228668 1.123169 3.7976685l0 18.71196c-1.9589844 1.8267365 -3.6524658 3.0645752 -5.0803223 3.7135468c-1.4192505 0.64897156 -2.6903687 0.9734497 -3.8135376 0.9734497c-1.6455688 0 -3.0516968 -0.4807129 -4.218445 -1.4421539c-1.157959 -0.9614258 -1.7369385 -2.9804535 -1.7369385 -6.0570374l0 -22.101028zm63.9812 -0.9734497c-2.0635376 0 -4.03125 0.5848694 -5.903137 1.7546234c-1.8632812 1.1617279 -3.722168 3.1967773 -5.57666 6.105118l0 -7.7155304l-1.4888306 0l-11.048828 4.110138l0.4701538 1.1537323c0.96643066 -0.33650208 1.7631226 -0.50476074 2.3900146 -0.50476074c0.78356934 0 1.4017334 0.14421082 1.8544922 0.4326477c0.46148682 0.2884369 0.7966919 0.7210846 1.0056152 1.2979431c0.20898438 0.5768585 0.31347656 1.9348907 0.31347656 4.0740814l0 31.222656c0 2.403595 -0.13934326 3.8978271 -0.4179077 4.4826965c-0.2699585 0.59288025 -0.65301514 1.0215302 -1.149292 1.2859192c-0.97442627 0.50579834 -2.1400146 0.7586975 -3.4967651 0.7586975c-0.061645508 0 -0.12371826 -5.187988E-4 -0.18615723 -0.0015716553l-0.9795532 0l0 1.3339996l18.806519 0l0 -1.3339996c-1.9590454 0 -3.3129272 -0.18026733 -4.0617065 -0.540802c-0.74005127 -0.36053467 -1.2624512 -0.8492737 -1.5671997 -1.4661865c-0.2960205 -0.60891724 -0.44403076 -2.0430603 -0.44403076 -4.302429l0 -10.059036c1.3059692 1.0816193 2.4813843 1.8026886 3.526184 2.1632385c1.4105225 0.5047455 3.0822144 0.75712585 5.0150757 0.75712585c4.4404297 0 8.123352 -1.5262756 11.048828 -4.578842c3.5523071 -3.7255707 5.328491 -8.4366 5.328491 -14.133118c0 -5.0956116 -1.4758301 -9.229782 -4.427368 -12.402527c-2.4030762 -2.5958862 -5.4068604 -3.893814 -9.011414 -3.893814z" fill-rule="evenodd"/><path fill="#ffffff" d="m247.90884 186.26772l0 1.8831482l2.3921814 0c1.5622406 0 3.0431213 0.40716553 4.442627 1.2214966c1.0415039 0.6107483 1.7249756 1.3402557 2.0504456 2.1885223c0.4230957 1.1197052 0.6346741 3.4269867 0.6346741 6.921829l0 47.12953c0 2.850174 -0.38516235 4.8351135 -1.155426 5.9548187c-0.7594147 1.1197052 -1.5785065 1.6795654 -2.4572754 1.6795654c-1.1716766 0 -2.1318054 -0.91612244 -2.8803864 -2.7483826c-1.2693176 -3.087677 -2.3216553 -4.987793 -3.1570282 -5.7003326c-0.82450867 -0.7125397 -1.7575226 -1.0688019 -2.7990112 -1.0688019c-1.4320526 0 -2.6851044 0.5259247 -3.75914 1.5777588c-0.8136749 0.8482666 -1.2205048 2.1036987 -1.2205048 3.7662964c0 2.0358276 0.87875366 3.845459 2.6362762 5.428894c1.7575226 1.5720978 4.165985 2.3581696 7.2253723 2.3581696c3.7754211 0 6.9975433 -1.193222 9.666367 -3.5796814c2.6688232 -2.3977509 4.545685 -5.2083282 5.6305847 -8.431732c1.0957336 -3.223404 1.6436157 -7.430786 1.6436157 -12.622162l0 -33.743942c0 -4.1395264 0.39056396 -6.752182 1.1716614 -7.8379517c1.2367859 -1.6625977 3.2058716 -2.4938965 5.9072266 -2.4938965l2.3921814 0l0 -1.8831482z" fill-rule="evenodd"/><path fill="#000000" fill-opacity="0.0" d="m212.53543 164.7769l586.2677 2.3937073" fill-rule="evenodd"/><path stroke="#ffffff" stroke-width="2.0" stroke-linejoin="round" stroke-linecap="butt" d="m212.53543 164.7769l586.2677 2.3937073" fill-rule="evenodd"/></g></svg>